<?xml version="1.0" encoding="utf-8"?>
<!-- Generator: Adobe Illustrator 19.2.1, SVG Export Plug-In . SVG Version: 6.00 Build 0)  -->
<svg version="1.1" id="layer" xmlns="http://www.w3.org/2000/svg" xmlns:xlink="http://www.w3.org/1999/xlink" x="0px" y="0px"
	 viewBox="0 0 652 652" style="enable-background:new 0 0 652 652;" xml:space="preserve">
<style type="text/css">
	.st0{fill:#F26125;}
	.st1{fill:#E01D8E;}
	.st2{fill:#00AEC5;}
	.st3{fill:#696969;}
	.st4{fill:#282828;}
</style>
<g id="g3826">
	<path id="path3810" class="st0" d="M462.9,349.3c-2.2-24.3,3.1-47,15.4-59.7c8-8.2,14-11.8,23.3-11.8c3.6,0,8.4,1.3,10.4,2.4
		c0.2,0.1,46.3,25.2,46.3,25.2c0.8-4.2,0.5-8.7-0.8-13.4c-4.4-14.8-18.9-29.5-38.9-39.2c-15.8-7.7-29.5-12.4-40.9-13.7
		c-1.9-0.2-5.7-0.4-7.4-0.5c-10-0.2-16.9,2.1-21.8,6.7c-0.2,0.2-0.5,0.5-0.7,0.7c-0.7,0.7-1.4,1.6-2.1,2.4l-0.5,0.7
		c-3.6,5.2-6,10.3-4.8,19.8c0,0,5.1,31.1,6.8,41.5c2.8,16.5,8.8,44.1,16.3,65c4.6,13,11.4,23.4,15.9,29.5
		C471.7,394.6,465.5,377.3,462.9,349.3z"/>
	<path id="path3812" class="st1" d="M522,245.7c21.9,10.7,38.1,27.1,43.1,44.1c3,9.9,2.8,19.2-2.5,26.8c-2.7,3.8-6.1,6.6-9.8,8.5
		c-0.2,0.2-41.4,22.8-41.4,22.8c3.5,3.3,7.8,6.4,13.3,7.5c15.2,3,34.9-3.1,52.7-16.3c16.5-12.1,27.6-23.9,34-34.4
		c6.8-11.1,8.1-18.4,3.7-28.9c-2.4-4.8-5.8-9.1-10.7-11.5c-9-4.5-25.3-8.7-35.4-12.1c-16.4-5.5-46.1-14.6-67.8-19.3
		c-23.3-5.1-38.6-1.6-39.7-1.3C474.5,229,493.7,231.9,522,245.7z"/>
	<path id="path3814" class="st2" d="M582.2,345.4c-19.7,14.5-41.7,21.1-59.1,17.7c-10.1-2-16.5-6.9-20.2-11.9
		c-2-2.7-4.9-8.1-4.9-15.4c0-13.3,0.1-49.2,0.1-49.2c-4.9,1.2-10,4-14,8.4c-10.4,11.5-15.4,31.5-13.4,53.6
		c1.9,20.4,6.4,35.8,11.8,46.9c4.8,9.9,13.7,16.3,22.8,16.9c0,0.1,0.1,0.1,0.1,0.1c8.3,0.5,14.5-2.2,18.9-6
		c5.7-4.9,21.6-18.5,28.3-24.2c12.7-10.9,34-29.3,48.6-46c15.9-18.1,20.4-34.1,20.7-35.1C617.4,313.3,605.9,328,582.2,345.4
		L582.2,345.4z"/>
	<path id="path3816" class="st3" d="M58.3,326.2c4.6,0,9,0.7,13.3,2.1c4.3,1.4,7.2,2.7,8.9,3.7s2.8,2,3.6,2.7
		c1.6,1.5,2.2,3.2,1.7,5.1c-0.3,1.6-1.1,2.9-2.4,3.9c-1.3,1-2.7,1.5-4.2,1.5c-0.9,0-2-0.5-3.6-1.6c-4.7-3.5-10.4-5.2-16.9-5.4
		c-4.9,0-9.2,0.8-12.9,2.4c-3.7,1.6-5.5,4-5.5,7.2c0,1.6,0.4,3,1.1,4.1c0.7,1.1,1.6,2,2.5,2.7c0.9,0.7,2.3,1.3,4,1.8
		c1.7,0.5,3.1,0.9,4,1c0.9,0.1,2.4,0.3,4.3,0.5c2,0.2,3.1,0.3,3.4,0.3c9.4,1.1,16.9,3.5,22.4,7.2c5.5,3.7,8.3,9.6,8.3,17.7
		c0,0.5-0.1,1.9-0.3,4c-0.9,7.8-4.5,13.9-10.7,18.3c-6.2,4.3-13.4,6.5-21.6,6.5c-1.9,0-3.3-0.1-4.1-0.1c-6.3-0.6-12.4-2.7-18.3-6.3
		c-5.9-3.6-10.2-8.2-12.9-13.6c-0.9-2.1-0.7-4.1,0.6-6.1c1.3-2,3-3,5-3c0.9,0,1.7,0.2,2.5,0.7c0.8,0.5,1.4,1,1.9,1.5
		c0.4,0.5,1,1.3,1.7,2.2c0.7,1,1.2,1.6,1.4,1.9c5,6.1,11.5,9.6,19.4,10.4c0.7,0.1,1.7,0.1,3,0.1c4.9,0,9.3-1.2,13.3-3.6
		c4-2.4,6.3-5.8,6.9-10.3c0-0.2,0-0.5,0.1-0.9c0.1-0.4,0.1-0.7,0.1-0.9c0-2.1-0.4-3.9-1.3-5.4c-0.9-1.6-1.9-2.8-3.1-3.7
		c-1.2-1-2.8-1.7-4.8-2.4c-2-0.7-3.7-1.1-5.2-1.4c-1.4-0.3-3.3-0.6-5.6-0.9c-12.7-1.2-21.2-4.2-25.4-8.9c-3.3-3.6-4.9-7.8-4.9-12.8
		c0-5.5,2-10.2,5.9-13.9C40.2,328.9,48.3,326.2,58.3,326.2z"/>
	<path id="path3818" class="st3" d="M128.5,344.5v24.3c0,9.9,2.8,17.5,8.4,22.8c5.6,5.2,12.4,7.9,20.4,7.9c1.6,0,2.8,0.6,3.8,1.8
		c1,1.2,1.4,2.7,1.4,4.3s-0.5,3.1-1.4,4.3c-1,1.2-2.2,1.8-3.8,1.8c-11,0-20.6-3.7-28.7-11.3c-8.1-7.5-12.2-18.1-12.2-31.7v-24.3
		c0-1.5-0.5-2.7-1.6-3.7c-1-1-2.2-1.5-3.6-1.5h-5c-1.4,0-2.4-0.5-3.1-1.5c-0.7-1-1.1-2.2-1.1-3.7s0.4-2.7,1.1-3.7
		c0.7-1,1.8-1.5,3.1-1.5h5c1.4,0,2.6-0.5,3.6-1.6s1.6-2.2,1.6-3.7v-30.1c0-1.6,0.6-2.8,1.7-3.8c1.2-1,2.6-1.4,4.3-1.4
		c1.7,0,3.1,0.5,4.3,1.4c1.2,1,1.7,2.2,1.7,3.8v30.1c0,1.4,0.5,2.6,1.6,3.7c1,1,2.2,1.6,3.6,1.6h18.1c1.4,0,2.5,0.5,3.3,1.5
		s1.2,2.2,1.2,3.7s-0.4,2.7-1.2,3.7s-1.9,1.5-3.3,1.5h-18.1c-1.4,0-2.6,0.5-3.6,1.5C129,341.8,128.5,343,128.5,344.5z"/>
	<path id="path3820" class="st3" d="M255.6,334.5V403c0,1.8-0.6,3.2-1.9,4.3c-1.2,1-2.7,1.6-4.5,1.6c-2.5,0-4.3-1.1-5.3-3.3
		c-0.8-1.4-1.8-2.1-3.1-2.1c-0.6,0-1.3,0.2-2,0.7c-7.2,4.9-15.2,7.5-24.1,7.5c-11,0-20.6-3.7-28.7-11.3
		c-8.1-7.5-12.2-18.1-12.2-31.7s4.1-24.2,12.2-31.6s17.7-11.2,28.7-11.2c8.9,0,17,2.5,24.1,7.5c0.8,0.5,1.4,0.7,2,0.7
		c1.4,0,2.4-0.7,3.1-2.2c1-2.1,2.8-3.1,5.3-3.1c1.7,0,3.3,0.5,4.5,1.6C255,331.3,255.6,332.8,255.6,334.5z M235.2,345.9
		c-5.6-5.2-12.4-7.8-20.4-7.8c-8,0-14.9,2.6-20.4,7.8c-5.6,5.2-8.4,12.8-8.4,22.7c0,10.1,2.8,17.7,8.4,22.9
		c5.6,5.2,12.4,7.8,20.4,7.8c8,0,14.9-2.6,20.4-7.8c5.6-5.2,8.4-12.8,8.4-22.9C243.5,358.8,240.8,351.2,235.2,345.9z"/>
	<path id="path3822" class="st3" d="M292.2,368.8v34.7c0,2.2-1,3.7-3,4.6c-2,0.9-4,0.9-6,0c-2-0.9-3-2.4-3-4.6v-34.7
		c0-12.4,3.8-22.7,11.3-30.8c7.5-8.1,17.4-12.2,29.6-12.2c7.5,0,13.4,1.3,17.8,3.9c2.5,1.4,3.5,3.6,2.8,6.6c-0.7,3-2.5,4.5-5.4,4.5
		c-0.8,0-2.8-0.4-6.2-1.3c-3.3-0.9-6.3-1.3-9-1.3c-8.8,0-15.9,2.8-21,8.6C294.8,352.4,292.2,359.8,292.2,368.8z"/>
	<path id="path3824" class="st3" d="M382,344.5v24.3c0,9.9,2.8,17.5,8.4,22.8c5.6,5.2,12.4,7.9,20.4,7.9c1.6,0,2.8,0.6,3.8,1.8
		c1,1.2,1.4,2.7,1.4,4.3s-0.5,3.1-1.4,4.3c-1,1.2-2.2,1.8-3.8,1.8c-11,0-20.6-3.7-28.7-11.3c-8.1-7.5-12.2-18.1-12.2-31.7v-24.3
		c0-1.5-0.5-2.7-1.6-3.7c-1-1-2.2-1.5-3.6-1.5h-5c-1.4,0-2.4-0.5-3.1-1.5c-0.7-1-1.1-2.2-1.1-3.7s0.4-2.7,1.1-3.7
		c0.7-1,1.8-1.5,3.1-1.5h5c1.4,0,2.6-0.5,3.6-1.6s1.6-2.2,1.6-3.7v-30.1c0-1.6,0.6-2.8,1.7-3.8c1.2-1,2.6-1.4,4.3-1.4
		s3.1,0.5,4.3,1.4c1.2,1,1.7,2.2,1.7,3.8v30.1c0,1.4,0.5,2.6,1.6,3.7c1,1,2.2,1.6,3.6,1.6h18.1c1.4,0,2.5,0.5,3.3,1.5
		c0.8,1,1.2,2.2,1.2,3.7s-0.4,2.7-1.2,3.7c-0.8,1-1.9,1.5-3.3,1.5h-18.1c-1.4,0-2.6,0.5-3.6,1.5C382.5,341.8,382,343,382,344.5
		L382,344.5z"/>
</g>
<path id="path3906" class="st4" d="M52.6,411.6c-5.7-0.7-13-3.4-18.3-7c-5.4-3.6-10.9-9.9-11.9-13.7c-1-3.6,2.1-7.8,5.8-7.8
	c1.7,0,3.5,1.3,5.7,4.1c7,9.1,15.2,13.2,25.5,12.6c10.4-0.6,17.8-5.9,18.9-13.7c0.6-4.2-0.6-7.7-3.6-10.7c-2.5-2.4-7.9-4.3-15.9-5.4
	c-7.8-1.1-9.5-1.4-12.6-2.2c-10.8-2.8-16.5-8.2-17.8-16.7c-1.5-9.8,4.6-18.6,15.7-22.6c6-2.2,14.7-2.9,21.5-1.7
	c6.5,1.1,14.2,4.3,17.3,7c2.9,2.5,3.5,4.6,2.1,7.4c-1,2-2.7,3.1-5,3.3c-1.7,0.1-2.1,0-4.3-1.4c-6.2-4.1-9.8-5.1-17.5-5.1
	c-6.1,0-9.5,0.7-13.3,2.6c-5,2.6-6.3,8.1-2.8,12.2c2.4,2.8,6.2,4.2,14.6,5.1c13.8,1.5,22.6,4.6,27.8,9.8c4.2,4.1,5.6,8.1,5.5,15.4
	c-0.1,8.5-2.1,13.8-7.2,19c-5.4,5.4-12.5,8.5-21.2,9.4C57.3,412,56.2,412,52.6,411.6L52.6,411.6z"/>
<path id="path3908" class="st4" d="M149.4,411c-8.4-1.5-16.2-5.8-22.2-12.2c-4.6-4.9-7.5-10.2-9.1-16.8c-1.3-5.4-1.6-9-1.6-24
	c0-16.1,0-16.2-2.6-17.9c-1.1-0.7-1.7-0.9-5.1-0.9c-3.7,0-3.9,0-5.1-1.1c-1.2-1.1-1.2-1.2-1.2-3.9c0-2.6,0.1-2.9,1-3.9
	c1-1,1.3-1,5.2-1.2c3.6-0.2,4.4-0.3,5.4-1c2.4-1.7,2.4-1.7,2.4-19.6c0-13.5,0.1-16.4,0.6-17.2c1.7-3.3,7.5-3.7,10.1-0.8
	c0.7,0.8,0.8,1.5,0.9,17.8c0.2,22.5-1.1,20.5,14.6,20.8c11.6,0.2,11.5,0.2,12.6,2.3c0.7,1.4,0.7,4.2,0,5.6
	c-1.1,2.1-1.8,2.2-12.8,2.2c-11.3,0-12,0.1-13.4,2.6c-0.7,1.2-0.8,2-0.9,13.1c-0.1,12.5,0.3,20,1.3,24c3,11.7,12.6,19.6,25.3,20.6
	c4.6,0.4,5.6,0.8,6.8,3c1.5,2.7,0.4,7.2-1.9,8.4C158.2,411.7,153.4,411.7,149.4,411L149.4,411z"/>
<path id="path3910" class="st4" d="M208.9,411.2c-13-1.8-25-10.2-30.4-21.2c-3.4-7-4.4-12.1-4.4-21.6c0-7.3,0.7-11.7,2.8-17.4
	c4-11.1,14.8-20.5,27.2-23.7c7.4-1.9,17.2-1.6,24.2,0.8c2.4,0.8,6.4,2.8,10.6,5.2c1.6,0.9,1.9,1,3,0.6c0.8-0.3,1.6-0.9,2.2-2.1
	c1.4-2.3,2.6-3,5.2-3c2.5,0,4.5,1.1,5.5,2.9c0.6,1.1,0.6,3.8,0.6,37.1c0,35.6,0,35.9-0.8,36.9c-1.5,2.1-2.6,2.6-5.5,2.6
	c-2.9,0-2.4,0.4-6-3.9c-1.3-1.5-2.6-1.5-5,0c-4.7,3-9.8,5.1-14.9,6.2C219.9,411.4,212.4,411.7,208.9,411.2L208.9,411.2z
	 M222.6,398.6c10.7-2.8,18-10.6,20.3-21.5c1-5.1,0.9-13.9-0.4-18.5c-2.6-9.7-9.1-16.4-18.8-19.4c-2.5-0.8-3.6-0.9-9-0.9
	c-5.4,0-6.5,0.1-9,0.9c-7.5,2.3-13.5,7.3-16.8,13.8c-0.4,0.9-1.2,3.1-1.8,4.9c-0.9,3.1-1,3.8-1,10.6c0,6.5,0.1,7.7,0.8,10.5
	c1.5,5.3,3.7,9.3,7.2,12.6c4.4,4.2,8.7,6.3,14.8,7.5C212.2,399.7,219.3,399.5,222.6,398.6z"/>
<path id="path3912" class="st4" d="M282.9,407.8c-2.7-1.4-2.6-0.5-2.4-24.7c0.1-18.3,0.3-22.1,0.8-24.4c3.6-16.5,15-28.5,30.3-31.8
	c4.8-1,16.3-0.9,20.4,0.2c7.9,2.2,10.6,4.7,9.6,9c-0.5,2.1-1.9,3.6-3.7,4.1c-1.4,0.4-3.2,0.1-8-1.2c-2.6-0.7-4.1-0.9-9.1-0.9
	c-5.3,0-6.3,0.1-8.8,0.9c-9.5,3-15.8,9.8-18.7,20.3l-1,3.6l-0.2,21.2c-0.2,19-0.3,21.3-0.8,22.2
	C289.8,408.5,285.6,409.2,282.9,407.8z"/>
<path id="path3914" class="st4" d="M404.4,410.7c-8.8-1.2-17-5.6-23.7-12.8c-8.4-9.1-10-15.1-10-37.3c0-20-0.3-20.9-8-21.8
	c-6-0.7-7.9-2.8-6-6.9c1.1-2.3,1.9-2.7,6-2.7c7.5,0,8-1.5,8-21.2c0-17.7,0.4-19.1,5.3-19.1c4.9,0,5.3,1.4,5.3,19.1
	c0,21.8-0.4,21.2,14.2,21.2c12.1,0,13.7,0.8,13.1,6l-0.3,3l-12,0.5c-16,0.7-15.3-0.3-14.8,22.3c0.5,20.4,1.6,24.2,9.6,31.5
	c4.8,4.4,12.9,7.8,18.8,7.8c3.5,0,5.3,1.8,5.3,5.2C415.2,410.8,413.1,411.8,404.4,410.7z"/>
</svg>
